<?xml version="1.0" encoding="utf-8"?>
<!-- Generator: Adobe Illustrator 19.0.0, SVG Export Plug-In . SVG Version: 6.00 Build 0)  -->
<!DOCTYPE svg PUBLIC "-//W3C//DTD SVG 1.1//EN" "http://www.w3.org/Graphics/SVG/1.1/DTD/svg11.dtd">
<svg version="1.1" id="Kleemann" xmlns="http://www.w3.org/2000/svg" xmlns:xlink="http://www.w3.org/1999/xlink" x="0px" y="0px"
	 viewBox="0 0 275 31" style="enable-background:new 0 0 275 31;" xml:space="preserve">
<style type="text/css">
	.st0{fill:#4A5056;}
	.st1{fill:#0032BA;}
</style>
<g id="XMLID_30_">
	<g id="XMLID_31_">
		<g id="XMLID_32_">
			<path id="XMLID_33_" class="st0" d="M55.63,25.72l-7.29-8.95h-0.06v8.95h-4.63V6.28h4.63v7.91h0.09l7.01-7.91h5.93l-8.45,8.95
				l8.95,10.49H55.63z"/>
			<path id="XMLID_34_" class="st0" d="M63.36,25.72V6.28h4.77v15.35h7.59v4.09H63.36z"/>
			<path id="XMLID_35_" class="st0" d="M77.38,25.72V6.28h13.19v3.95h-8.62v3.68h8.15v3.76h-8.15v4.04h9.11v4.01H77.38z"/>
			<path id="XMLID_36_" class="st0" d="M93.93,25.72V6.28h13.19v3.95h-8.62v3.68h8.15v3.76h-8.15v4.04h9.12v4.01H93.93z"/>
			<path id="XMLID_37_" class="st0" d="M128.25,25.72l0.11-13.76h-0.08l-5.1,13.76h-3.32l-4.96-13.76h-0.08l0.11,13.76h-4.46V6.28
				h6.74l4.47,12.47h0.11l4.27-12.47h6.85v19.44H128.25z"/>
			<path id="XMLID_38_" class="st0" d="M149.95,25.72l-1.52-3.82h-7.59l-1.44,3.82h-5.15l8.23-19.44h4.6l8.15,19.44H149.95z
				 M144.68,11.47l-2.49,6.67h4.93L144.68,11.47z"/>
			<path id="XMLID_39_" class="st0" d="M169.04,25.72l-7.89-12.71h-0.09l0.11,12.71h-4.6V6.28h5.4l7.87,12.69h0.08l-0.11-12.69h4.6
				v19.44H169.04z"/>
			<path id="XMLID_40_" class="st0" d="M190.65,25.72l-7.9-12.71h-0.09l0.11,12.71h-4.6V6.28h5.4l7.87,12.69h0.08l-0.11-12.69h4.6
				v19.44H190.65z"/>
		</g>
	</g>
</g>
</svg>
